%TF.GenerationSoftware,KiCad,Pcbnew,8.0.4*%
%TF.CreationDate,2024-11-17T18:03:45-05:00*%
%TF.ProjectId,snowglobe1,736e6f77-676c-46f6-9265-312e6b696361,rev?*%
%TF.SameCoordinates,Original*%
%TF.FileFunction,Legend,Top*%
%TF.FilePolarity,Positive*%
%FSLAX46Y46*%
G04 Gerber Fmt 4.6, Leading zero omitted, Abs format (unit mm)*
G04 Created by KiCad (PCBNEW 8.0.4) date 2024-11-17 18:03:45*
%MOMM*%
%LPD*%
G01*
G04 APERTURE LIST*
%ADD10C,0.100000*%
%ADD11C,0.150000*%
%ADD12C,0.120000*%
G04 APERTURE END LIST*
D10*
X124708646Y-55872419D02*
X124946741Y-56872419D01*
X124946741Y-56872419D02*
X125137217Y-56158133D01*
X125137217Y-56158133D02*
X125327693Y-56872419D01*
X125327693Y-56872419D02*
X125565789Y-55872419D01*
X125946741Y-56872419D02*
X125946741Y-56205752D01*
X125946741Y-55872419D02*
X125899122Y-55920038D01*
X125899122Y-55920038D02*
X125946741Y-55967657D01*
X125946741Y-55967657D02*
X125994360Y-55920038D01*
X125994360Y-55920038D02*
X125946741Y-55872419D01*
X125946741Y-55872419D02*
X125946741Y-55967657D01*
X126422931Y-56205752D02*
X126422931Y-56872419D01*
X126422931Y-56300990D02*
X126470550Y-56253371D01*
X126470550Y-56253371D02*
X126565788Y-56205752D01*
X126565788Y-56205752D02*
X126708645Y-56205752D01*
X126708645Y-56205752D02*
X126803883Y-56253371D01*
X126803883Y-56253371D02*
X126851502Y-56348609D01*
X126851502Y-56348609D02*
X126851502Y-56872419D01*
X127184836Y-56205752D02*
X127565788Y-56205752D01*
X127327693Y-55872419D02*
X127327693Y-56729561D01*
X127327693Y-56729561D02*
X127375312Y-56824800D01*
X127375312Y-56824800D02*
X127470550Y-56872419D01*
X127470550Y-56872419D02*
X127565788Y-56872419D01*
X128280074Y-56824800D02*
X128184836Y-56872419D01*
X128184836Y-56872419D02*
X127994360Y-56872419D01*
X127994360Y-56872419D02*
X127899122Y-56824800D01*
X127899122Y-56824800D02*
X127851503Y-56729561D01*
X127851503Y-56729561D02*
X127851503Y-56348609D01*
X127851503Y-56348609D02*
X127899122Y-56253371D01*
X127899122Y-56253371D02*
X127994360Y-56205752D01*
X127994360Y-56205752D02*
X128184836Y-56205752D01*
X128184836Y-56205752D02*
X128280074Y-56253371D01*
X128280074Y-56253371D02*
X128327693Y-56348609D01*
X128327693Y-56348609D02*
X128327693Y-56443847D01*
X128327693Y-56443847D02*
X127851503Y-56539085D01*
X128756265Y-56872419D02*
X128756265Y-56205752D01*
X128756265Y-56396228D02*
X128803884Y-56300990D01*
X128803884Y-56300990D02*
X128851503Y-56253371D01*
X128851503Y-56253371D02*
X128946741Y-56205752D01*
X128946741Y-56205752D02*
X129041979Y-56205752D01*
X130089599Y-55967657D02*
X130137218Y-55920038D01*
X130137218Y-55920038D02*
X130232456Y-55872419D01*
X130232456Y-55872419D02*
X130470551Y-55872419D01*
X130470551Y-55872419D02*
X130565789Y-55920038D01*
X130565789Y-55920038D02*
X130613408Y-55967657D01*
X130613408Y-55967657D02*
X130661027Y-56062895D01*
X130661027Y-56062895D02*
X130661027Y-56158133D01*
X130661027Y-56158133D02*
X130613408Y-56300990D01*
X130613408Y-56300990D02*
X130041980Y-56872419D01*
X130041980Y-56872419D02*
X130661027Y-56872419D01*
X131280075Y-55872419D02*
X131375313Y-55872419D01*
X131375313Y-55872419D02*
X131470551Y-55920038D01*
X131470551Y-55920038D02*
X131518170Y-55967657D01*
X131518170Y-55967657D02*
X131565789Y-56062895D01*
X131565789Y-56062895D02*
X131613408Y-56253371D01*
X131613408Y-56253371D02*
X131613408Y-56491466D01*
X131613408Y-56491466D02*
X131565789Y-56681942D01*
X131565789Y-56681942D02*
X131518170Y-56777180D01*
X131518170Y-56777180D02*
X131470551Y-56824800D01*
X131470551Y-56824800D02*
X131375313Y-56872419D01*
X131375313Y-56872419D02*
X131280075Y-56872419D01*
X131280075Y-56872419D02*
X131184837Y-56824800D01*
X131184837Y-56824800D02*
X131137218Y-56777180D01*
X131137218Y-56777180D02*
X131089599Y-56681942D01*
X131089599Y-56681942D02*
X131041980Y-56491466D01*
X131041980Y-56491466D02*
X131041980Y-56253371D01*
X131041980Y-56253371D02*
X131089599Y-56062895D01*
X131089599Y-56062895D02*
X131137218Y-55967657D01*
X131137218Y-55967657D02*
X131184837Y-55920038D01*
X131184837Y-55920038D02*
X131280075Y-55872419D01*
X131994361Y-55967657D02*
X132041980Y-55920038D01*
X132041980Y-55920038D02*
X132137218Y-55872419D01*
X132137218Y-55872419D02*
X132375313Y-55872419D01*
X132375313Y-55872419D02*
X132470551Y-55920038D01*
X132470551Y-55920038D02*
X132518170Y-55967657D01*
X132518170Y-55967657D02*
X132565789Y-56062895D01*
X132565789Y-56062895D02*
X132565789Y-56158133D01*
X132565789Y-56158133D02*
X132518170Y-56300990D01*
X132518170Y-56300990D02*
X131946742Y-56872419D01*
X131946742Y-56872419D02*
X132565789Y-56872419D01*
X133422932Y-56205752D02*
X133422932Y-56872419D01*
X133184837Y-55824800D02*
X132946742Y-56539085D01*
X132946742Y-56539085D02*
X133565789Y-56539085D01*
X134661028Y-56824800D02*
X134803885Y-56872419D01*
X134803885Y-56872419D02*
X135041980Y-56872419D01*
X135041980Y-56872419D02*
X135137218Y-56824800D01*
X135137218Y-56824800D02*
X135184837Y-56777180D01*
X135184837Y-56777180D02*
X135232456Y-56681942D01*
X135232456Y-56681942D02*
X135232456Y-56586704D01*
X135232456Y-56586704D02*
X135184837Y-56491466D01*
X135184837Y-56491466D02*
X135137218Y-56443847D01*
X135137218Y-56443847D02*
X135041980Y-56396228D01*
X135041980Y-56396228D02*
X134851504Y-56348609D01*
X134851504Y-56348609D02*
X134756266Y-56300990D01*
X134756266Y-56300990D02*
X134708647Y-56253371D01*
X134708647Y-56253371D02*
X134661028Y-56158133D01*
X134661028Y-56158133D02*
X134661028Y-56062895D01*
X134661028Y-56062895D02*
X134708647Y-55967657D01*
X134708647Y-55967657D02*
X134756266Y-55920038D01*
X134756266Y-55920038D02*
X134851504Y-55872419D01*
X134851504Y-55872419D02*
X135089599Y-55872419D01*
X135089599Y-55872419D02*
X135232456Y-55920038D01*
X135661028Y-56205752D02*
X135661028Y-56872419D01*
X135661028Y-56300990D02*
X135708647Y-56253371D01*
X135708647Y-56253371D02*
X135803885Y-56205752D01*
X135803885Y-56205752D02*
X135946742Y-56205752D01*
X135946742Y-56205752D02*
X136041980Y-56253371D01*
X136041980Y-56253371D02*
X136089599Y-56348609D01*
X136089599Y-56348609D02*
X136089599Y-56872419D01*
X136708647Y-56872419D02*
X136613409Y-56824800D01*
X136613409Y-56824800D02*
X136565790Y-56777180D01*
X136565790Y-56777180D02*
X136518171Y-56681942D01*
X136518171Y-56681942D02*
X136518171Y-56396228D01*
X136518171Y-56396228D02*
X136565790Y-56300990D01*
X136565790Y-56300990D02*
X136613409Y-56253371D01*
X136613409Y-56253371D02*
X136708647Y-56205752D01*
X136708647Y-56205752D02*
X136851504Y-56205752D01*
X136851504Y-56205752D02*
X136946742Y-56253371D01*
X136946742Y-56253371D02*
X136994361Y-56300990D01*
X136994361Y-56300990D02*
X137041980Y-56396228D01*
X137041980Y-56396228D02*
X137041980Y-56681942D01*
X137041980Y-56681942D02*
X136994361Y-56777180D01*
X136994361Y-56777180D02*
X136946742Y-56824800D01*
X136946742Y-56824800D02*
X136851504Y-56872419D01*
X136851504Y-56872419D02*
X136708647Y-56872419D01*
X137375314Y-56205752D02*
X137565790Y-56872419D01*
X137565790Y-56872419D02*
X137756266Y-56396228D01*
X137756266Y-56396228D02*
X137946742Y-56872419D01*
X137946742Y-56872419D02*
X138137218Y-56205752D01*
X139803885Y-55920038D02*
X139708647Y-55872419D01*
X139708647Y-55872419D02*
X139565790Y-55872419D01*
X139565790Y-55872419D02*
X139422933Y-55920038D01*
X139422933Y-55920038D02*
X139327695Y-56015276D01*
X139327695Y-56015276D02*
X139280076Y-56110514D01*
X139280076Y-56110514D02*
X139232457Y-56300990D01*
X139232457Y-56300990D02*
X139232457Y-56443847D01*
X139232457Y-56443847D02*
X139280076Y-56634323D01*
X139280076Y-56634323D02*
X139327695Y-56729561D01*
X139327695Y-56729561D02*
X139422933Y-56824800D01*
X139422933Y-56824800D02*
X139565790Y-56872419D01*
X139565790Y-56872419D02*
X139661028Y-56872419D01*
X139661028Y-56872419D02*
X139803885Y-56824800D01*
X139803885Y-56824800D02*
X139851504Y-56777180D01*
X139851504Y-56777180D02*
X139851504Y-56443847D01*
X139851504Y-56443847D02*
X139661028Y-56443847D01*
X140422933Y-56872419D02*
X140327695Y-56824800D01*
X140327695Y-56824800D02*
X140280076Y-56729561D01*
X140280076Y-56729561D02*
X140280076Y-55872419D01*
X140946743Y-56872419D02*
X140851505Y-56824800D01*
X140851505Y-56824800D02*
X140803886Y-56777180D01*
X140803886Y-56777180D02*
X140756267Y-56681942D01*
X140756267Y-56681942D02*
X140756267Y-56396228D01*
X140756267Y-56396228D02*
X140803886Y-56300990D01*
X140803886Y-56300990D02*
X140851505Y-56253371D01*
X140851505Y-56253371D02*
X140946743Y-56205752D01*
X140946743Y-56205752D02*
X141089600Y-56205752D01*
X141089600Y-56205752D02*
X141184838Y-56253371D01*
X141184838Y-56253371D02*
X141232457Y-56300990D01*
X141232457Y-56300990D02*
X141280076Y-56396228D01*
X141280076Y-56396228D02*
X141280076Y-56681942D01*
X141280076Y-56681942D02*
X141232457Y-56777180D01*
X141232457Y-56777180D02*
X141184838Y-56824800D01*
X141184838Y-56824800D02*
X141089600Y-56872419D01*
X141089600Y-56872419D02*
X140946743Y-56872419D01*
X141708648Y-56872419D02*
X141708648Y-55872419D01*
X141708648Y-56253371D02*
X141803886Y-56205752D01*
X141803886Y-56205752D02*
X141994362Y-56205752D01*
X141994362Y-56205752D02*
X142089600Y-56253371D01*
X142089600Y-56253371D02*
X142137219Y-56300990D01*
X142137219Y-56300990D02*
X142184838Y-56396228D01*
X142184838Y-56396228D02*
X142184838Y-56681942D01*
X142184838Y-56681942D02*
X142137219Y-56777180D01*
X142137219Y-56777180D02*
X142089600Y-56824800D01*
X142089600Y-56824800D02*
X141994362Y-56872419D01*
X141994362Y-56872419D02*
X141803886Y-56872419D01*
X141803886Y-56872419D02*
X141708648Y-56824800D01*
X142994362Y-56824800D02*
X142899124Y-56872419D01*
X142899124Y-56872419D02*
X142708648Y-56872419D01*
X142708648Y-56872419D02*
X142613410Y-56824800D01*
X142613410Y-56824800D02*
X142565791Y-56729561D01*
X142565791Y-56729561D02*
X142565791Y-56348609D01*
X142565791Y-56348609D02*
X142613410Y-56253371D01*
X142613410Y-56253371D02*
X142708648Y-56205752D01*
X142708648Y-56205752D02*
X142899124Y-56205752D01*
X142899124Y-56205752D02*
X142994362Y-56253371D01*
X142994362Y-56253371D02*
X143041981Y-56348609D01*
X143041981Y-56348609D02*
X143041981Y-56443847D01*
X143041981Y-56443847D02*
X142565791Y-56539085D01*
D11*
X120190476Y-87849819D02*
X120190476Y-86849819D01*
X120190476Y-86849819D02*
X120523809Y-87564104D01*
X120523809Y-87564104D02*
X120857142Y-86849819D01*
X120857142Y-86849819D02*
X120857142Y-87849819D01*
X121857142Y-87849819D02*
X121285714Y-87849819D01*
X121571428Y-87849819D02*
X121571428Y-86849819D01*
X121571428Y-86849819D02*
X121476190Y-86992676D01*
X121476190Y-86992676D02*
X121380952Y-87087914D01*
X121380952Y-87087914D02*
X121285714Y-87135533D01*
X142498095Y-63824819D02*
X142498095Y-64634342D01*
X142498095Y-64634342D02*
X142545714Y-64729580D01*
X142545714Y-64729580D02*
X142593333Y-64777200D01*
X142593333Y-64777200D02*
X142688571Y-64824819D01*
X142688571Y-64824819D02*
X142879047Y-64824819D01*
X142879047Y-64824819D02*
X142974285Y-64777200D01*
X142974285Y-64777200D02*
X143021904Y-64729580D01*
X143021904Y-64729580D02*
X143069523Y-64634342D01*
X143069523Y-64634342D02*
X143069523Y-63824819D01*
X144069523Y-64824819D02*
X143498095Y-64824819D01*
X143783809Y-64824819D02*
X143783809Y-63824819D01*
X143783809Y-63824819D02*
X143688571Y-63967676D01*
X143688571Y-63967676D02*
X143593333Y-64062914D01*
X143593333Y-64062914D02*
X143498095Y-64110533D01*
X148159580Y-80416666D02*
X148207200Y-80464285D01*
X148207200Y-80464285D02*
X148254819Y-80607142D01*
X148254819Y-80607142D02*
X148254819Y-80702380D01*
X148254819Y-80702380D02*
X148207200Y-80845237D01*
X148207200Y-80845237D02*
X148111961Y-80940475D01*
X148111961Y-80940475D02*
X148016723Y-80988094D01*
X148016723Y-80988094D02*
X147826247Y-81035713D01*
X147826247Y-81035713D02*
X147683390Y-81035713D01*
X147683390Y-81035713D02*
X147492914Y-80988094D01*
X147492914Y-80988094D02*
X147397676Y-80940475D01*
X147397676Y-80940475D02*
X147302438Y-80845237D01*
X147302438Y-80845237D02*
X147254819Y-80702380D01*
X147254819Y-80702380D02*
X147254819Y-80607142D01*
X147254819Y-80607142D02*
X147302438Y-80464285D01*
X147302438Y-80464285D02*
X147350057Y-80416666D01*
X147350057Y-80035713D02*
X147302438Y-79988094D01*
X147302438Y-79988094D02*
X147254819Y-79892856D01*
X147254819Y-79892856D02*
X147254819Y-79654761D01*
X147254819Y-79654761D02*
X147302438Y-79559523D01*
X147302438Y-79559523D02*
X147350057Y-79511904D01*
X147350057Y-79511904D02*
X147445295Y-79464285D01*
X147445295Y-79464285D02*
X147540533Y-79464285D01*
X147540533Y-79464285D02*
X147683390Y-79511904D01*
X147683390Y-79511904D02*
X148254819Y-80083332D01*
X148254819Y-80083332D02*
X148254819Y-79464285D01*
X142409580Y-80416666D02*
X142457200Y-80464285D01*
X142457200Y-80464285D02*
X142504819Y-80607142D01*
X142504819Y-80607142D02*
X142504819Y-80702380D01*
X142504819Y-80702380D02*
X142457200Y-80845237D01*
X142457200Y-80845237D02*
X142361961Y-80940475D01*
X142361961Y-80940475D02*
X142266723Y-80988094D01*
X142266723Y-80988094D02*
X142076247Y-81035713D01*
X142076247Y-81035713D02*
X141933390Y-81035713D01*
X141933390Y-81035713D02*
X141742914Y-80988094D01*
X141742914Y-80988094D02*
X141647676Y-80940475D01*
X141647676Y-80940475D02*
X141552438Y-80845237D01*
X141552438Y-80845237D02*
X141504819Y-80702380D01*
X141504819Y-80702380D02*
X141504819Y-80607142D01*
X141504819Y-80607142D02*
X141552438Y-80464285D01*
X141552438Y-80464285D02*
X141600057Y-80416666D01*
X142504819Y-79464285D02*
X142504819Y-80035713D01*
X142504819Y-79749999D02*
X141504819Y-79749999D01*
X141504819Y-79749999D02*
X141647676Y-79845237D01*
X141647676Y-79845237D02*
X141742914Y-79940475D01*
X141742914Y-79940475D02*
X141790533Y-80035713D01*
X119500057Y-80095238D02*
X119452438Y-80190476D01*
X119452438Y-80190476D02*
X119357200Y-80285714D01*
X119357200Y-80285714D02*
X119214342Y-80428571D01*
X119214342Y-80428571D02*
X119166723Y-80523809D01*
X119166723Y-80523809D02*
X119166723Y-80619047D01*
X119404819Y-80571428D02*
X119357200Y-80666666D01*
X119357200Y-80666666D02*
X119261961Y-80761904D01*
X119261961Y-80761904D02*
X119071485Y-80809523D01*
X119071485Y-80809523D02*
X118738152Y-80809523D01*
X118738152Y-80809523D02*
X118547676Y-80761904D01*
X118547676Y-80761904D02*
X118452438Y-80666666D01*
X118452438Y-80666666D02*
X118404819Y-80571428D01*
X118404819Y-80571428D02*
X118404819Y-80380952D01*
X118404819Y-80380952D02*
X118452438Y-80285714D01*
X118452438Y-80285714D02*
X118547676Y-80190476D01*
X118547676Y-80190476D02*
X118738152Y-80142857D01*
X118738152Y-80142857D02*
X119071485Y-80142857D01*
X119071485Y-80142857D02*
X119261961Y-80190476D01*
X119261961Y-80190476D02*
X119357200Y-80285714D01*
X119357200Y-80285714D02*
X119404819Y-80380952D01*
X119404819Y-80380952D02*
X119404819Y-80571428D01*
X119404819Y-79190476D02*
X119404819Y-79761904D01*
X119404819Y-79476190D02*
X118404819Y-79476190D01*
X118404819Y-79476190D02*
X118547676Y-79571428D01*
X118547676Y-79571428D02*
X118642914Y-79666666D01*
X118642914Y-79666666D02*
X118690533Y-79761904D01*
X149356667Y-87987200D02*
X149499524Y-88034819D01*
X149499524Y-88034819D02*
X149737619Y-88034819D01*
X149737619Y-88034819D02*
X149832857Y-87987200D01*
X149832857Y-87987200D02*
X149880476Y-87939580D01*
X149880476Y-87939580D02*
X149928095Y-87844342D01*
X149928095Y-87844342D02*
X149928095Y-87749104D01*
X149928095Y-87749104D02*
X149880476Y-87653866D01*
X149880476Y-87653866D02*
X149832857Y-87606247D01*
X149832857Y-87606247D02*
X149737619Y-87558628D01*
X149737619Y-87558628D02*
X149547143Y-87511009D01*
X149547143Y-87511009D02*
X149451905Y-87463390D01*
X149451905Y-87463390D02*
X149404286Y-87415771D01*
X149404286Y-87415771D02*
X149356667Y-87320533D01*
X149356667Y-87320533D02*
X149356667Y-87225295D01*
X149356667Y-87225295D02*
X149404286Y-87130057D01*
X149404286Y-87130057D02*
X149451905Y-87082438D01*
X149451905Y-87082438D02*
X149547143Y-87034819D01*
X149547143Y-87034819D02*
X149785238Y-87034819D01*
X149785238Y-87034819D02*
X149928095Y-87082438D01*
X150261429Y-87034819D02*
X150499524Y-88034819D01*
X150499524Y-88034819D02*
X150690000Y-87320533D01*
X150690000Y-87320533D02*
X150880476Y-88034819D01*
X150880476Y-88034819D02*
X151118572Y-87034819D01*
X152023333Y-88034819D02*
X151451905Y-88034819D01*
X151737619Y-88034819D02*
X151737619Y-87034819D01*
X151737619Y-87034819D02*
X151642381Y-87177676D01*
X151642381Y-87177676D02*
X151547143Y-87272914D01*
X151547143Y-87272914D02*
X151451905Y-87320533D01*
X139834819Y-60833333D02*
X140549104Y-60833333D01*
X140549104Y-60833333D02*
X140691961Y-60880952D01*
X140691961Y-60880952D02*
X140787200Y-60976190D01*
X140787200Y-60976190D02*
X140834819Y-61119047D01*
X140834819Y-61119047D02*
X140834819Y-61214285D01*
X139930057Y-60404761D02*
X139882438Y-60357142D01*
X139882438Y-60357142D02*
X139834819Y-60261904D01*
X139834819Y-60261904D02*
X139834819Y-60023809D01*
X139834819Y-60023809D02*
X139882438Y-59928571D01*
X139882438Y-59928571D02*
X139930057Y-59880952D01*
X139930057Y-59880952D02*
X140025295Y-59833333D01*
X140025295Y-59833333D02*
X140120533Y-59833333D01*
X140120533Y-59833333D02*
X140263390Y-59880952D01*
X140263390Y-59880952D02*
X140834819Y-60452380D01*
X140834819Y-60452380D02*
X140834819Y-59833333D01*
X115146905Y-70759819D02*
X115146905Y-69759819D01*
X115146905Y-69759819D02*
X115385000Y-69759819D01*
X115385000Y-69759819D02*
X115527857Y-69807438D01*
X115527857Y-69807438D02*
X115623095Y-69902676D01*
X115623095Y-69902676D02*
X115670714Y-69997914D01*
X115670714Y-69997914D02*
X115718333Y-70188390D01*
X115718333Y-70188390D02*
X115718333Y-70331247D01*
X115718333Y-70331247D02*
X115670714Y-70521723D01*
X115670714Y-70521723D02*
X115623095Y-70616961D01*
X115623095Y-70616961D02*
X115527857Y-70712200D01*
X115527857Y-70712200D02*
X115385000Y-70759819D01*
X115385000Y-70759819D02*
X115146905Y-70759819D01*
X116670714Y-70759819D02*
X116099286Y-70759819D01*
X116385000Y-70759819D02*
X116385000Y-69759819D01*
X116385000Y-69759819D02*
X116289762Y-69902676D01*
X116289762Y-69902676D02*
X116194524Y-69997914D01*
X116194524Y-69997914D02*
X116099286Y-70045533D01*
X115006905Y-64759819D02*
X115006905Y-63759819D01*
X115006905Y-63759819D02*
X115245000Y-63759819D01*
X115245000Y-63759819D02*
X115387857Y-63807438D01*
X115387857Y-63807438D02*
X115483095Y-63902676D01*
X115483095Y-63902676D02*
X115530714Y-63997914D01*
X115530714Y-63997914D02*
X115578333Y-64188390D01*
X115578333Y-64188390D02*
X115578333Y-64331247D01*
X115578333Y-64331247D02*
X115530714Y-64521723D01*
X115530714Y-64521723D02*
X115483095Y-64616961D01*
X115483095Y-64616961D02*
X115387857Y-64712200D01*
X115387857Y-64712200D02*
X115245000Y-64759819D01*
X115245000Y-64759819D02*
X115006905Y-64759819D01*
X115959286Y-63855057D02*
X116006905Y-63807438D01*
X116006905Y-63807438D02*
X116102143Y-63759819D01*
X116102143Y-63759819D02*
X116340238Y-63759819D01*
X116340238Y-63759819D02*
X116435476Y-63807438D01*
X116435476Y-63807438D02*
X116483095Y-63855057D01*
X116483095Y-63855057D02*
X116530714Y-63950295D01*
X116530714Y-63950295D02*
X116530714Y-64045533D01*
X116530714Y-64045533D02*
X116483095Y-64188390D01*
X116483095Y-64188390D02*
X115911667Y-64759819D01*
X115911667Y-64759819D02*
X116530714Y-64759819D01*
X127083333Y-71084819D02*
X126750000Y-70608628D01*
X126511905Y-71084819D02*
X126511905Y-70084819D01*
X126511905Y-70084819D02*
X126892857Y-70084819D01*
X126892857Y-70084819D02*
X126988095Y-70132438D01*
X126988095Y-70132438D02*
X127035714Y-70180057D01*
X127035714Y-70180057D02*
X127083333Y-70275295D01*
X127083333Y-70275295D02*
X127083333Y-70418152D01*
X127083333Y-70418152D02*
X127035714Y-70513390D01*
X127035714Y-70513390D02*
X126988095Y-70561009D01*
X126988095Y-70561009D02*
X126892857Y-70608628D01*
X126892857Y-70608628D02*
X126511905Y-70608628D01*
X127940476Y-70418152D02*
X127940476Y-71084819D01*
X127702381Y-70037200D02*
X127464286Y-70751485D01*
X127464286Y-70751485D02*
X128083333Y-70751485D01*
X127583333Y-65084819D02*
X127250000Y-64608628D01*
X127011905Y-65084819D02*
X127011905Y-64084819D01*
X127011905Y-64084819D02*
X127392857Y-64084819D01*
X127392857Y-64084819D02*
X127488095Y-64132438D01*
X127488095Y-64132438D02*
X127535714Y-64180057D01*
X127535714Y-64180057D02*
X127583333Y-64275295D01*
X127583333Y-64275295D02*
X127583333Y-64418152D01*
X127583333Y-64418152D02*
X127535714Y-64513390D01*
X127535714Y-64513390D02*
X127488095Y-64561009D01*
X127488095Y-64561009D02*
X127392857Y-64608628D01*
X127392857Y-64608628D02*
X127011905Y-64608628D01*
X128488095Y-64084819D02*
X128011905Y-64084819D01*
X128011905Y-64084819D02*
X127964286Y-64561009D01*
X127964286Y-64561009D02*
X128011905Y-64513390D01*
X128011905Y-64513390D02*
X128107143Y-64465771D01*
X128107143Y-64465771D02*
X128345238Y-64465771D01*
X128345238Y-64465771D02*
X128440476Y-64513390D01*
X128440476Y-64513390D02*
X128488095Y-64561009D01*
X128488095Y-64561009D02*
X128535714Y-64656247D01*
X128535714Y-64656247D02*
X128535714Y-64894342D01*
X128535714Y-64894342D02*
X128488095Y-64989580D01*
X128488095Y-64989580D02*
X128440476Y-65037200D01*
X128440476Y-65037200D02*
X128345238Y-65084819D01*
X128345238Y-65084819D02*
X128107143Y-65084819D01*
X128107143Y-65084819D02*
X128011905Y-65037200D01*
X128011905Y-65037200D02*
X127964286Y-64989580D01*
D12*
%TO.C,M1*%
X119670000Y-88395000D02*
X121000000Y-88395000D01*
X119670000Y-89725000D02*
X119670000Y-88395000D01*
X119670000Y-90995000D02*
X119670000Y-93595000D01*
X119670000Y-90995000D02*
X122330000Y-90995000D01*
X119670000Y-93595000D02*
X122330000Y-93595000D01*
X122330000Y-90995000D02*
X122330000Y-93595000D01*
%TO.C,U1*%
X140610000Y-65370000D02*
X140610000Y-75650000D01*
X140610000Y-75650000D02*
X145910000Y-75650000D01*
X142260000Y-65370000D02*
X140610000Y-65370000D01*
X145910000Y-65370000D02*
X144260000Y-65370000D01*
X145910000Y-75650000D02*
X145910000Y-65370000D01*
X144260000Y-65370000D02*
G75*
G02*
X142260000Y-65370000I-1000000J0D01*
G01*
%TO.C,R3*%
X155630000Y-77230000D02*
X155630000Y-83770000D01*
X155630000Y-83770000D02*
X158370000Y-83770000D01*
X157000000Y-76460000D02*
X157000000Y-77230000D01*
X157000000Y-84540000D02*
X157000000Y-83770000D01*
X158370000Y-77230000D02*
X155630000Y-77230000D01*
X158370000Y-83770000D02*
X158370000Y-77230000D01*
%TO.C,R2*%
X150630000Y-77230000D02*
X150630000Y-83770000D01*
X150630000Y-83770000D02*
X153370000Y-83770000D01*
X152000000Y-76460000D02*
X152000000Y-77230000D01*
X152000000Y-84540000D02*
X152000000Y-83770000D01*
X153370000Y-77230000D02*
X150630000Y-77230000D01*
X153370000Y-83770000D02*
X153370000Y-77230000D01*
%TO.C,C2*%
X144830000Y-79621000D02*
X144830000Y-80879000D01*
X146670000Y-79621000D02*
X146670000Y-80879000D01*
%TO.C,C1*%
X139080000Y-79621000D02*
X139080000Y-80879000D01*
X140920000Y-79621000D02*
X140920000Y-80879000D01*
%TO.C,R1*%
X123460000Y-79500000D02*
X124230000Y-79500000D01*
X124230000Y-78130000D02*
X124230000Y-80870000D01*
X124230000Y-80870000D02*
X130770000Y-80870000D01*
X130770000Y-78130000D02*
X124230000Y-78130000D01*
X130770000Y-80870000D02*
X130770000Y-78130000D01*
X131540000Y-79500000D02*
X130770000Y-79500000D01*
%TO.C,Q1*%
X113540000Y-78200000D02*
X113540000Y-81800000D01*
X113551522Y-78161522D02*
G75*
G02*
X117990001Y-80000000I1838478J-1838478D01*
G01*
X117990000Y-80000000D02*
G75*
G02*
X113551522Y-81838478I-2600000J0D01*
G01*
%TO.C,SW1*%
X145500000Y-88340000D02*
X145500000Y-89723000D01*
X145500000Y-88340000D02*
X146884000Y-88340000D01*
X145740000Y-88580000D02*
X145740000Y-93420000D01*
X145740000Y-88580000D02*
X155640000Y-88580000D01*
X145740000Y-93420000D02*
X155640000Y-93420000D01*
X148660000Y-90365000D02*
X148660000Y-91635000D01*
X148660000Y-90485000D02*
X150013333Y-90485000D01*
X148660000Y-90605000D02*
X150013333Y-90605000D01*
X148660000Y-90725000D02*
X150013333Y-90725000D01*
X148660000Y-90845000D02*
X150013333Y-90845000D01*
X148660000Y-90965000D02*
X150013333Y-90965000D01*
X148660000Y-91085000D02*
X150013333Y-91085000D01*
X148660000Y-91205000D02*
X150013333Y-91205000D01*
X148660000Y-91325000D02*
X150013333Y-91325000D01*
X148660000Y-91445000D02*
X150013333Y-91445000D01*
X148660000Y-91565000D02*
X150013333Y-91565000D01*
X148660000Y-91635000D02*
X152720000Y-91635000D01*
X150013333Y-90365000D02*
X150013333Y-91635000D01*
X152720000Y-90365000D02*
X148660000Y-90365000D01*
X152720000Y-91635000D02*
X152720000Y-90365000D01*
X155640000Y-88580000D02*
X155640000Y-93420000D01*
%TO.C,J2*%
X129100000Y-59170000D02*
X129100000Y-61830000D01*
X136780000Y-59170000D02*
X129100000Y-59170000D01*
X136780000Y-59170000D02*
X136780000Y-61830000D01*
X136780000Y-61830000D02*
X129100000Y-61830000D01*
X138050000Y-59170000D02*
X139380000Y-59170000D01*
X139380000Y-59170000D02*
X139380000Y-60500000D01*
%TO.C,D1*%
X114325000Y-72029000D02*
X114325000Y-72185000D01*
X114325000Y-74345000D02*
X114325000Y-74501000D01*
X114325000Y-72029484D02*
G75*
G02*
X117557335Y-72186392I1560000J-1235516D01*
G01*
X114844039Y-72185000D02*
G75*
G02*
X116926130Y-72185163I1040961J-1080000D01*
G01*
X116926130Y-74344837D02*
G75*
G02*
X114844039Y-74345000I-1041130J1079837D01*
G01*
X117557335Y-74343608D02*
G75*
G02*
X114325000Y-74500516I-1672335J1078608D01*
G01*
%TO.C,D2*%
X114185000Y-66029000D02*
X114185000Y-66185000D01*
X114185000Y-68345000D02*
X114185000Y-68501000D01*
X114185000Y-66029484D02*
G75*
G02*
X117417335Y-66186392I1560000J-1235516D01*
G01*
X114704039Y-66185000D02*
G75*
G02*
X116786130Y-66185163I1040961J-1080000D01*
G01*
X116786130Y-68344837D02*
G75*
G02*
X114704039Y-68345000I-1041130J1079837D01*
G01*
X117417335Y-68343608D02*
G75*
G02*
X114185000Y-68500516I-1672335J1078608D01*
G01*
%TO.C,R4*%
X123210000Y-73000000D02*
X123980000Y-73000000D01*
X123980000Y-71630000D02*
X123980000Y-74370000D01*
X123980000Y-74370000D02*
X130520000Y-74370000D01*
X130520000Y-71630000D02*
X123980000Y-71630000D01*
X130520000Y-74370000D02*
X130520000Y-71630000D01*
X131290000Y-73000000D02*
X130520000Y-73000000D01*
%TO.C,R5*%
X123710000Y-67000000D02*
X124480000Y-67000000D01*
X124480000Y-65630000D02*
X124480000Y-68370000D01*
X124480000Y-68370000D02*
X131020000Y-68370000D01*
X131020000Y-65630000D02*
X124480000Y-65630000D01*
X131020000Y-68370000D02*
X131020000Y-65630000D01*
X131790000Y-67000000D02*
X131020000Y-67000000D01*
%TD*%
M02*
