%TF.GenerationSoftware,KiCad,Pcbnew,8.0.4*%
%TF.CreationDate,2024-11-17T18:03:44-05:00*%
%TF.ProjectId,snowglobe1,736e6f77-676c-46f6-9265-312e6b696361,rev?*%
%TF.SameCoordinates,Original*%
%TF.FileFunction,Copper,L1,Top*%
%TF.FilePolarity,Positive*%
%FSLAX46Y46*%
G04 Gerber Fmt 4.6, Leading zero omitted, Abs format (unit mm)*
G04 Created by KiCad (PCBNEW 8.0.4) date 2024-11-17 18:03:44*
%MOMM*%
%LPD*%
G01*
G04 APERTURE LIST*
%TA.AperFunction,ComponentPad*%
%ADD10R,1.700000X1.700000*%
%TD*%
%TA.AperFunction,ComponentPad*%
%ADD11O,1.700000X1.700000*%
%TD*%
%TA.AperFunction,ComponentPad*%
%ADD12R,1.600000X1.600000*%
%TD*%
%TA.AperFunction,ComponentPad*%
%ADD13O,1.600000X1.600000*%
%TD*%
%TA.AperFunction,ComponentPad*%
%ADD14C,1.600000*%
%TD*%
%TA.AperFunction,ComponentPad*%
%ADD15R,1.500000X1.050000*%
%TD*%
%TA.AperFunction,ComponentPad*%
%ADD16O,1.500000X1.050000*%
%TD*%
%TA.AperFunction,ComponentPad*%
%ADD17R,1.800000X1.800000*%
%TD*%
%TA.AperFunction,ComponentPad*%
%ADD18C,1.800000*%
%TD*%
%TA.AperFunction,Conductor*%
%ADD19C,0.200000*%
%TD*%
G04 APERTURE END LIST*
D10*
%TO.P,M1,1,+*%
%TO.N,VDD*%
X121000000Y-89725000D03*
D11*
%TO.P,M1,2,-*%
%TO.N,Net-(M1--)*%
X121000000Y-92265000D03*
%TD*%
D12*
%TO.P,U1,1,GND*%
%TO.N,GND*%
X139450000Y-66700000D03*
D13*
%TO.P,U1,2,TR*%
%TO.N,Net-(U1-TR)*%
X139450000Y-69240000D03*
%TO.P,U1,3,Q*%
%TO.N,Net-(U1-Q)*%
X139450000Y-71780000D03*
%TO.P,U1,4,R*%
%TO.N,VDD*%
X139450000Y-74320000D03*
%TO.P,U1,5,CV*%
%TO.N,Net-(U1-CV)*%
X147070000Y-74320000D03*
%TO.P,U1,6,THR*%
%TO.N,Net-(U1-DIS)*%
X147070000Y-71780000D03*
%TO.P,U1,7,DIS*%
X147070000Y-69240000D03*
%TO.P,U1,8,VCC*%
%TO.N,VDD*%
X147070000Y-66700000D03*
%TD*%
D14*
%TO.P,R3,1*%
%TO.N,VDD*%
X157000000Y-75420000D03*
D13*
%TO.P,R3,2*%
%TO.N,Net-(U1-TR)*%
X157000000Y-85580000D03*
%TD*%
D14*
%TO.P,R2,1*%
%TO.N,VDD*%
X152000000Y-75420000D03*
D13*
%TO.P,R2,2*%
%TO.N,Net-(U1-DIS)*%
X152000000Y-85580000D03*
%TD*%
D14*
%TO.P,C2,1*%
%TO.N,Net-(U1-DIS)*%
X145750000Y-79000000D03*
%TO.P,C2,2*%
%TO.N,GND*%
X145750000Y-81500000D03*
%TD*%
%TO.P,C1,1*%
%TO.N,Net-(U1-CV)*%
X140000000Y-79000000D03*
%TO.P,C1,2*%
%TO.N,GND*%
X140000000Y-81500000D03*
%TD*%
%TO.P,R1,1*%
%TO.N,Net-(U1-Q)*%
X132580000Y-79500000D03*
D13*
%TO.P,R1,2*%
%TO.N,Net-(Q1-B)*%
X122420000Y-79500000D03*
%TD*%
D15*
%TO.P,Q1,1,E*%
%TO.N,GND*%
X115390000Y-78730000D03*
D16*
%TO.P,Q1,2,B*%
%TO.N,Net-(Q1-B)*%
X115390000Y-80000000D03*
%TO.P,Q1,3,C*%
%TO.N,Net-(M1--)*%
X115390000Y-81270000D03*
%TD*%
D12*
%TO.P,SW1,1,1*%
%TO.N,GND*%
X146880000Y-91000000D03*
D13*
%TO.P,SW1,2,2*%
%TO.N,Net-(U1-TR)*%
X154500000Y-91000000D03*
%TD*%
D10*
%TO.P,J2,1,VBUS*%
%TO.N,VDD*%
X138050000Y-60500000D03*
D11*
%TO.P,J2,2,D-*%
%TO.N,unconnected-(J2-D--Pad2)*%
X135510000Y-60500000D03*
%TO.P,J2,3,D+*%
%TO.N,unconnected-(J2-D+-Pad3)*%
X132970000Y-60500000D03*
%TO.P,J2,4,GND*%
%TO.N,GND*%
X130430000Y-60500000D03*
%TD*%
D17*
%TO.P,D1,1,K*%
%TO.N,GND*%
X114615000Y-73265000D03*
D18*
%TO.P,D1,2,A*%
%TO.N,Net-(D1-A)*%
X117155000Y-73265000D03*
%TD*%
D17*
%TO.P,D2,1,K*%
%TO.N,GND*%
X114475000Y-67265000D03*
D18*
%TO.P,D2,2,A*%
%TO.N,Net-(D2-A)*%
X117015000Y-67265000D03*
%TD*%
D14*
%TO.P,R4,1*%
%TO.N,Net-(D1-A)*%
X122170000Y-73000000D03*
D13*
%TO.P,R4,2*%
%TO.N,Net-(U1-Q)*%
X132330000Y-73000000D03*
%TD*%
D14*
%TO.P,R5,1*%
%TO.N,Net-(D2-A)*%
X122670000Y-67000000D03*
D13*
%TO.P,R5,2*%
%TO.N,VDD*%
X132830000Y-67000000D03*
%TD*%
D19*
%TO.N,Net-(U1-CV)*%
X147070000Y-74320000D02*
X144680000Y-74320000D01*
X144680000Y-74320000D02*
X140000000Y-79000000D01*
%TO.N,Net-(U1-DIS)*%
X147070000Y-71780000D02*
X148170000Y-72880000D01*
X145750000Y-79330000D02*
X145750000Y-79000000D01*
X152000000Y-85580000D02*
X145750000Y-79330000D01*
X148170000Y-76580000D02*
X145750000Y-79000000D01*
X148170000Y-72880000D02*
X148170000Y-76580000D01*
%TO.N,Net-(U1-TR)*%
X154500000Y-88080000D02*
X157000000Y-85580000D01*
X154500000Y-91000000D02*
X154500000Y-88080000D01*
%TO.N,Net-(M1--)*%
X121000000Y-92265000D02*
X115390000Y-86655000D01*
X115390000Y-86655000D02*
X115390000Y-81270000D01*
%TO.N,GND*%
X140550000Y-67800000D02*
X140550000Y-76894365D01*
X138900000Y-78544365D02*
X138900000Y-80400000D01*
X138900000Y-80400000D02*
X140000000Y-81500000D01*
X140550000Y-76894365D02*
X138900000Y-78544365D01*
X146880000Y-91000000D02*
X146880000Y-82630000D01*
X139450000Y-66700000D02*
X140550000Y-67800000D01*
X146880000Y-82630000D02*
X145750000Y-81500000D01*
%TO.N,VDD*%
X132830000Y-65720000D02*
X138050000Y-60500000D01*
X132830000Y-67000000D02*
X132830000Y-65720000D01*
X152000000Y-75420000D02*
X157000000Y-75420000D01*
X135355000Y-74320000D02*
X139450000Y-74320000D01*
X132830000Y-67700000D02*
X139450000Y-74320000D01*
X132830000Y-67000000D02*
X132830000Y-67700000D01*
X152000000Y-71630000D02*
X152000000Y-75420000D01*
X140870000Y-60500000D02*
X147070000Y-66700000D01*
X138050000Y-60500000D02*
X140870000Y-60500000D01*
X121000000Y-89725000D02*
X121000000Y-88675000D01*
X147070000Y-66700000D02*
X152000000Y-71630000D01*
X121000000Y-88675000D02*
X135355000Y-74320000D01*
%TD*%
M02*
