M48
; DRILL file {KiCad 8.0.4} date 2024-11-17T18:03:49-0500
; FORMAT={-:-/ absolute / inch / decimal}
; #@! TF.CreationDate,2024-11-17T18:03:49-05:00
; #@! TF.GenerationSoftware,Kicad,Pcbnew,8.0.4
; #@! TF.FileFunction,Plated,1,2,PTH
FMAT,2
INCH
; #@! TA.AperFunction,Plated,PTH,ComponentDrill
T1C0.0295
; #@! TA.AperFunction,Plated,PTH,ComponentDrill
T2C0.0315
; #@! TA.AperFunction,Plated,PTH,ComponentDrill
T3C0.0354
; #@! TA.AperFunction,Plated,PTH,ComponentDrill
T4C0.0394
%
G90
G05
T1
X4.5429Y-3.0996
X4.5429Y-3.1496
X4.5429Y-3.1996
T2
X4.8098Y-2.874
X4.8197Y-3.1299
X4.8295Y-2.6378
X5.2098Y-2.874
X5.2197Y-3.1299
X5.2295Y-2.6378
X5.4902Y-2.626
X5.4902Y-2.726
X5.4902Y-2.826
X5.4902Y-2.926
X5.5118Y-3.1102
X5.5118Y-3.2087
X5.7382Y-3.1102
X5.7382Y-3.2087
X5.7827Y-3.5827
X5.7902Y-2.626
X5.7902Y-2.726
X5.7902Y-2.826
X5.7902Y-2.926
X5.9843Y-2.9693
X5.9843Y-3.3693
X6.0827Y-3.5827
X6.1811Y-2.9693
X6.1811Y-3.3693
T3
X4.5069Y-2.6482
X4.5124Y-2.8844
X4.6069Y-2.6482
X4.6124Y-2.8844
T4
X4.7638Y-3.5325
X4.7638Y-3.6325
X5.135Y-2.3819
X5.235Y-2.3819
X5.335Y-2.3819
X5.435Y-2.3819
M30
